<?xml version="1.0" standalone="no"?>
<!DOCTYPE svg PUBLIC "-//W3C//DTD SVG 20010904//EN"
 "http://www.w3.org/TR/2001/REC-SVG-20010904/DTD/svg10.dtd">
<svg version="1.0" xmlns="http://www.w3.org/2000/svg"
 width="512.000000pt" height="512.000000pt" viewBox="0 0 512.000000 512.000000"
 preserveAspectRatio="xMidYMid meet">

<g transform="translate(0.000000,512.000000) scale(0.100000,-0.100000)"
fill="#000000" stroke="none">
<path d="M130 4786 c-52 -26 -105 -90 -120 -144 -6 -24 -10 -286 -10 -738 l0
-701 23 -21 c31 -29 77 -29 105 1 22 23 22 26 22 435 l0 412 1165 0 1165 0 0
-1785 0 -1785 -1134 0 c-624 0 -1142 3 -1151 6 -46 18 -45 -13 -45 1249 0 755
-4 1193 -10 1205 -23 43 -116 40 -134 -5 -3 -9 -6 -555 -6 -1213 1 -974 3
-1204 14 -1235 22 -59 64 -107 120 -133 l51 -24 1482 0 c1470 0 1483 0 1503
20 27 27 26 81 -1 106 -19 17 -42 19 -275 22 l-254 3 0 1784 0 1785 1165 0
1165 0 0 -504 c0 -494 0 -504 21 -530 15 -19 30 -26 54 -26 24 0 39 7 54 26
21 27 21 32 21 823 -1 639 -4 803 -14 834 -21 57 -62 105 -116 132 l-49 25
-1436 0 c-1422 0 -1435 0 -1455 -20 -25 -25 -26 -71 -1 -101 l19 -24 1434 -5
c788 -3 1434 -6 1435 -8 1 -1 9 -15 18 -32 12 -23 15 -70 15 -235 l0 -205
-2410 0 -2410 0 0 205 c0 165 3 212 15 235 9 17 17 31 18 32 1 2 361 5 800 8
l799 5 24 28 c29 34 30 56 3 91 l-20 26 -807 0 -807 -1 -45 -23z"/>
<path d="M405 4492 c-53 -11 -76 -90 -37 -125 26 -24 85 -22 107 3 48 53 0
136 -70 122z"/>
<path d="M743 4492 c-50 -8 -70 -85 -33 -122 62 -62 165 23 111 92 -22 28 -43
36 -78 30z"/>
<path d="M1073 4485 c-32 -14 -43 -32 -43 -71 0 -61 90 -88 129 -38 26 33 26
54 1 86 -25 32 -49 39 -87 23z"/>
<path d="M3755 3575 c-15 -14 -25 -36 -25 -53 0 -22 -10 -35 -45 -60 -105 -74
-115 -222 -21 -312 15 -14 66 -41 114 -60 85 -34 87 -36 90 -71 6 -71 -76
-101 -158 -59 -22 11 -49 20 -60 20 -29 0 -70 -44 -70 -76 0 -34 47 -78 103
-97 36 -12 42 -18 45 -45 5 -50 59 -84 107 -66 20 8 45 56 45 88 0 15 7 27 18
30 28 9 81 65 104 109 24 49 26 133 3 181 -25 52 -74 91 -147 115 -86 28 -108
45 -108 81 0 51 66 64 113 23 9 -9 31 -16 47 -16 71 0 97 88 40 136 -16 14
-39 28 -50 32 -13 4 -20 15 -20 30 0 37 -19 72 -47 84 -36 16 -51 14 -78 -14z"/>
<path d="M443 3490 c-12 -5 -26 -18 -32 -29 -7 -13 -11 -127 -11 -321 l0 -301
25 -24 c13 -14 36 -25 50 -25 14 0 37 11 50 25 24 23 25 30 25 138 l0 115 81
4 c74 3 83 6 105 31 29 34 30 56 3 91 -19 24 -26 26 -105 26 l-84 0 0 65 0 65
90 0 c77 0 93 3 110 20 30 30 27 83 -6 109 -24 19 -40 21 -153 20 -69 0 -136
-4 -148 -9z"/>
<path d="M885 3489 c-45 -26 -45 -29 -45 -345 0 -335 0 -337 67 -350 26 -5 37
-1 57 19 24 24 26 33 26 109 l1 83 37 -41 c20 -22 64 -70 98 -107 68 -76 97
-85 139 -42 45 44 35 68 -83 204 l-43 49 41 23 c46 26 97 95 106 146 17 90
-31 185 -116 232 -38 21 -60 25 -155 28 -71 3 -117 0 -130 -8z m237 -169 c24
-30 23 -59 -4 -87 -17 -18 -32 -23 -75 -23 l-53 0 0 71 0 71 57 -4 c43 -4 61
-10 75 -28z"/>
<path d="M1423 3490 c-12 -5 -26 -18 -32 -29 -7 -13 -11 -127 -11 -321 l0
-301 25 -24 c23 -24 29 -25 165 -25 136 0 142 1 165 25 32 31 33 74 2 103 -20
19 -35 22 -115 22 l-92 0 0 65 0 65 74 0 c41 0 82 3 91 6 26 10 44 62 33 94
-12 37 -46 50 -128 50 l-70 0 0 65 0 65 93 0 c85 0 96 2 115 23 27 29 28 67 3
98 -18 23 -26 24 -158 26 -76 1 -148 -2 -160 -7z"/>
<path d="M1895 3488 c-45 -24 -45 -28 -45 -344 0 -380 -17 -348 182 -352 134
-3 145 -2 171 18 34 27 37 80 7 110 -17 17 -33 20 -115 20 l-95 0 0 65 0 65
80 0 c73 0 83 3 105 25 14 13 25 36 25 50 0 14 -11 37 -25 50 -22 22 -32 25
-105 25 l-80 0 0 65 0 65 95 0 c82 0 98 3 115 20 30 30 27 83 -6 109 -24 19
-40 21 -158 21 -75 0 -139 -5 -151 -12z"/>
<path d="M5015 2758 c-47 -25 -45 20 -45 -1135 0 -961 -2 -1098 -15 -1123 -9
-17 -17 -31 -18 -32 -1 -2 -338 -5 -749 -8 l-747 -5 -22 -22 c-27 -27 -29 -75
-4 -103 18 -20 29 -20 769 -20 l751 0 51 24 c56 26 98 74 120 133 11 31 13
246 14 1140 0 606 -3 1109 -6 1118 -6 15 -54 45 -71 45 -4 0 -17 -6 -28 -12z"/>
<path d="M754 2453 c-6 -5 -44 -46 -84 -93 -40 -47 -77 -87 -82 -89 -5 -2 -25
12 -44 30 -43 41 -96 46 -125 10 -36 -44 -25 -70 57 -149 77 -73 106 -89 142
-78 26 9 240 261 248 293 10 37 -24 77 -67 81 -19 1 -39 -1 -45 -5z"/>
<path d="M3159 2365 c-44 -52 -83 -95 -85 -95 -2 0 -24 16 -50 35 -53 40 -71
43 -108 14 -31 -25 -35 -76 -8 -107 44 -51 146 -132 167 -132 33 0 64 28 175
161 78 93 100 126 100 149 0 41 -31 70 -75 70 -31 0 -42 -9 -116 -95z"/>
<path d="M1073 2323 c-26 -5 -63 -48 -63 -73 0 -10 9 -29 21 -44 l20 -26 573
0 c542 0 574 1 589 18 24 27 22 85 -4 108 -20 18 -45 19 -568 20 -300 1 -556
0 -568 -3z"/>
<path d="M3544 2316 c-48 -21 -60 -80 -24 -116 19 -19 33 -20 490 -20 l469 0
21 22 c37 40 21 97 -34 118 -44 16 -883 13 -922 -4z"/>
<path d="M445 1868 c-57 -31 -59 -74 -5 -132 22 -24 40 -47 40 -51 0 -4 -18
-27 -40 -51 -44 -48 -50 -79 -21 -115 30 -37 82 -32 129 14 21 20 42 37 46 37
5 0 28 -18 52 -40 49 -45 70 -49 108 -19 40 32 36 79 -13 132 l-39 42 39 42
c45 49 53 98 19 128 -35 31 -76 23 -123 -23 l-43 -42 -30 31 c-28 29 -74 59
-91 59 -4 0 -17 -6 -28 -12z"/>
<path d="M3254 1870 c-11 -4 -49 -41 -84 -81 -109 -126 -92 -117 -141 -75 -26
21 -53 36 -69 36 -38 0 -70 -34 -70 -75 0 -30 9 -44 63 -94 81 -79 117 -99
150 -84 14 7 75 71 136 143 92 109 111 136 111 164 0 50 -50 85 -96 66z"/>
<path d="M1031 1714 c-27 -35 -26 -57 3 -91 l24 -28 465 0 c443 0 466 1 486
19 27 25 29 86 3 109 -17 15 -65 17 -490 17 l-471 0 -20 -26z"/>
<path d="M3520 1720 c-25 -25 -26 -71 -1 -101 l19 -24 539 -3 c296 -2 553 0
571 3 67 12 94 81 49 123 l-23 22 -567 0 c-554 0 -567 0 -587 -20z"/>
<path d="M425 1265 c-36 -35 -32 -68 16 -120 l41 -45 -41 -46 c-57 -65 -54
-121 7 -142 36 -12 76 4 116 47 l30 31 43 -42 c47 -46 88 -54 123 -23 34 30
26 78 -19 128 l-39 42 39 43 c34 36 40 48 37 79 -2 25 -11 42 -30 56 -34 25
-61 18 -116 -29 l-43 -36 -44 41 c-52 48 -85 52 -120 16z"/>
<path d="M3245 1278 c-11 -5 -39 -33 -63 -61 -24 -29 -58 -70 -77 -91 l-33
-40 -41 37 c-67 61 -141 41 -141 -37 0 -30 10 -43 73 -101 78 -73 103 -87 136
-78 12 3 74 66 137 140 96 113 114 140 114 168 0 24 -7 39 -26 54 -29 23 -48
25 -79 9z"/>
<path d="M1031 1134 c-27 -35 -26 -57 3 -91 l24 -28 565 0 c541 0 566 1 586
19 14 13 21 31 21 57 0 72 25 69 -611 69 l-568 0 -20 -26z"/>
<path d="M3520 1140 c-25 -25 -26 -71 -1 -101 l19 -24 449 -3 c246 -1 458 0
471 3 32 8 62 41 62 69 0 13 -9 35 -21 50 l-20 26 -470 0 c-456 0 -470 -1
-489 -20z"/>
</g>
</svg>
